<svg xmlns="http://www.w3.org/2000/svg" viewBox="0 0 397 396" role="img" aria-label="shovel EXPLODED"><path id="grip-outer" data-role="SILHOUETTE" d="M86 76 C69 65 64 48 70 29 C75 14 86 5 99 4 L158 12 C170 14 174 24 169 36 L146 69 C132 87 105 89 86 76 Z" fill="none" stroke="#171512" stroke-width="2.8" stroke-linecap="round" stroke-linejoin="round"/><path id="grip-opening" data-role="IDENTITY_ANCHOR" d="M91 61 C79 54 77 43 81 32 C85 22 92 17 101 16 L153 22 C159 23 161 27 158 33 L138 58 C127 70 105 70 91 61 Z" fill="none" stroke="#171512" stroke-width="1.9" stroke-linecap="round" stroke-linejoin="round"/><path id="grip-socket" data-role="IDENTITY_ANCHOR" d="M105 81 L140 83 L137 101 C130 108 111 106 103 99 Z M111 88 L134 90" fill="none" stroke="#171512" stroke-width="1.9" stroke-linecap="round" stroke-linejoin="round"/><path id="upper-shaft" data-role="SILHOUETTE" d="M270 1 C281 -3 298 2 304 12 L273 171 C270 181 249 181 233 171 L258 17 C260 8 264 3 270 1 Z" fill="none" stroke="#171512" stroke-width="2.8" stroke-linecap="round" stroke-linejoin="round"/><path id="upper-shaft-detail" data-role="IDENTITY_ANCHOR" d="M260 17 C272 21 290 24 301 19 M235 159 C246 166 263 170 276 165 M233 171 C244 179 260 182 272 174" fill="none" stroke="#171512" stroke-width="1.9" stroke-linecap="round" stroke-linejoin="round"/><path id="lower-shaft" data-role="SILHOUETTE" d="M98 108 C106 106 115 111 117 118 L86 307 C84 317 61 316 53 309 L91 119 C92 113 95 110 98 108 Z" fill="none" stroke="#171512" stroke-width="2.8" stroke-linecap="round" stroke-linejoin="round"/><path id="lower-shaft-detail" data-role="IDENTITY_ANCHOR" d="M91 120 C99 124 108 125 115 122 M55 299 C64 305 76 307 87 303 M53 309 C64 316 76 318 85 311" fill="none" stroke="#171512" stroke-width="1.9" stroke-linecap="round" stroke-linejoin="round"/><path id="blade-outline" data-role="SILHOUETTE" d="M146 212 C132 228 119 253 108 281 C97 309 95 340 111 365 C134 382 166 390 196 386 C224 381 244 357 256 329 C267 303 272 272 269 239 C256 246 246 243 237 232 C227 247 217 256 207 257 C191 240 169 225 146 212 Z" fill="none" stroke="#171512" stroke-width="2.8" stroke-linecap="round" stroke-linejoin="round"/><path id="blade-rib" data-role="IDENTITY_ANCHOR" d="M207 257 C207 284 207 321 201 352 C199 367 196 378 193 386 M207 257 C219 272 233 286 246 300" fill="none" stroke="#171512" stroke-width="1.9" stroke-linecap="round" stroke-linejoin="round"/><path id="blade-left-face" data-role="CORRECTION" d="M145 228 C133 264 119 301 105 326 M114 352 C134 366 160 373 186 372" fill="none" stroke="#171512" stroke-width="1.3" stroke-linecap="round" stroke-linejoin="round"/><path id="blade-right-face" data-role="CORRECTION" d="M267 246 C268 278 260 316 244 345 C232 365 217 378 197 386" fill="none" stroke="#171512" stroke-width="1.3" stroke-linecap="round" stroke-linejoin="round"/><path id="blade-socket" data-role="IDENTITY_ANCHOR" d="M183 237 C181 254 185 271 197 282 C207 279 216 269 220 254" fill="none" stroke="#171512" stroke-width="1.9" stroke-linecap="round" stroke-linejoin="round"/><path id="grip-ring" data-role="IDENTITY_ANCHOR" d="M70 102 C79 96 96 97 104 103 C99 115 77 118 69 110 Z M73 106 C82 110 94 110 101 105" fill="none" stroke="#171512" stroke-width="1.9" stroke-linecap="round" stroke-linejoin="round"/><path id="shaft-ring" data-role="IDENTITY_ANCHOR" d="M216 173 C226 166 245 168 253 176 C247 188 224 191 215 182 Z M220 177 C229 182 242 182 249 177" fill="none" stroke="#171512" stroke-width="1.9" stroke-linecap="round" stroke-linejoin="round"/><path id="blade-ring" data-role="IDENTITY_ANCHOR" d="M191 192 C201 185 221 187 229 195 C223 207 200 210 191 201 Z M195 196 C204 201 218 201 225 196" fill="none" stroke="#171512" stroke-width="1.9" stroke-linecap="round" stroke-linejoin="round"/><path id="center-pin" data-role="IDENTITY_ANCHOR" d="M165 100 L176 102 L174 132 L162 130 Z M161 107 L176 110 M162 124 L174 126" fill="none" stroke="#171512" stroke-width="1.9" stroke-linecap="round" stroke-linejoin="round"/><path id="upper-fastener" data-role="CORRECTION" d="M294 180 L303 185 L297 199 L288 194 Z M290 187 L301 193" fill="none" stroke="#171512" stroke-width="1.3" stroke-linecap="round" stroke-linejoin="round"/><path id="blade-side-fastener" data-role="CORRECTION" d="M286 260 L313 251 M286 255 L313 247 M282 253 L289 262 M309 245 L316 253" fill="none" stroke="#171512" stroke-width="1.3" stroke-linecap="round" stroke-linejoin="round"/><path id="long-fastener-pair" data-role="IDENTITY_ANCHOR" d="M284 300 L274 348 M290 301 L281 350 M274 297 L291 301 M271 347 L284 351 M326 292 L314 345 M332 294 L321 347 M316 290 L333 294 M312 344 L324 348" fill="none" stroke="#171512" stroke-width="1.9" stroke-linecap="round" stroke-linejoin="round"/><path id="explosion-axis" data-role="CORRECTION" d="M120 102 L128 108 M179 82 L183 91 M235 153 L238 161" fill="none" stroke="#171512" stroke-width="1.3" stroke-linecap="round" stroke-linejoin="round"/></svg>
