<svg xmlns="http://www.w3.org/2000/svg" viewBox="0 0 800 600" role="img" aria-label="agricultural harvester crop engagement"><title>agricultural harvester crop engagement</title><rect width="800" height="600" fill="#fffef9"/><g fill="none" stroke="#11100d" stroke-linecap="round" stroke-linejoin="round" vector-effect="non-scaling-stroke"><polygon data-depth="0" points="556.033799092168,285 554.441794143806,298.4539412874413 542.5172670624383,311.005235839334 522.2517470735061,321.4020874474824 499.0892185355555,330.1023467992757 474.3469795414852,337.77571555538367 446.29827334835494,343.39812855896383 415.66208177065397,346.0716205237039 384.1798583560761,346.6879480810312 351.9348271055611,345.6267997248758 320.7199022642968,341.27752348658373 294.93431224553296,332.8226506964129 275.98135338041,321.9282053421313 261.6718382251395,310.24084656072444 252.43674785501577,297.85472848556736 251.033799092168,285.00000000000006 256.10677591999524,272.4649799352214 263.88590248144504,260.16315545485895 275.50156378914704,247.92893091092324 295.0043835961037,237.20924361460146 321.8469795414851,229.52254008232887 352.0480900639959,224.51606402206963 383.7809004740195,221.75638360266979 416.06103965271035,222.372711159997 446.18501038992,226.74473518798158 473.2199022642968,233.02434801352888 499.0191471849847,239.9295475117386 522.7315366647689,248.45504880557218 540.3032028061327,259.3987661762494 550.7717660788264,271.86576713334745" stroke-width="1"/><polygon data-depth="1" points="525.8116436704179,285 521.8611293367208,296.4704652908146 509.56422849997125,307.22140637635084 489.67672898781336,316.5023638130492 464.75713899887603,324.40140101833254 434.0363558856053,329.6225091813495 400,330.5976074634973 366.9094448105952,328.382540942923 336.31974721190375,323.74617093717063 310.99633385003233,316.26592487703783 291.647241618831,306.9757005452481 276.52000712923314,296.6228446268581 269.61164367041795,285 274.39093264146146,273.17675123158773 287.6885200503981,262.22140637635084 308.51597164781987,252.86275350625993 336.657138998876,246.45911467773306 367.7269165303395,242.68918481533336 400,240.5976074634973 433.2188841658609,241.44921657690685 464.41974721190377,245.80388459657115 492.1570911900257,252.62631457024855 513.5229500684042,261.9757005452481 523.9902038244924,273.3291305676312" stroke-width="0.58"/><polyline data-depth="1" points="270.96153846153845,227.5 270.38718086724833,260 269.047013147238,307.5 268.96153846153845,342.5" stroke-width="0.58"/><polyline data-depth="1" points="294.4230769230769,227.5 293.3077413101719,260 290.70529154672676,307.5 292.4230769230769,342.5" stroke-width="0.58"/><polyline data-depth="1" points="317.88461538461536,227.5 316.2931210048375,260 312.579634118689,307.5 315.88461538461536,342.5" stroke-width="0.58"/><polyline data-depth="1" points="341.34615384615387,227.5 339.3709925680091,260 334.76228291900463,307.5 339.34615384615387,342.5" stroke-width="0.58"/><polyline data-depth="1" points="364.8076923076923,227.5 362.56365332524734,260 357.327562366209,307.5 362.8076923076923,342.5" stroke-width="0.58"/><polyline data-depth="1" points="388.2692307692308,227.5 385.8867294713954,260 380.3275597764463,307.5 386.2692307692308,342.5" stroke-width="0.58"/><polyline data-depth="1" points="411.7307692307692,227.5 409.3482679329339,260 403.7890982379848,307.5 409.7307692307692,342.5" stroke-width="0.58"/><polyline data-depth="1" points="435.19230769230774,227.5 432.94826870986276,260 427.7121777508244,307.5 433.19230769230774,342.5" stroke-width="0.58"/><polyline data-depth="1" points="458.6538461538462,227.5 456.67868487570144,260 452.06997522669695,307.5 456.6538461538462,342.5" stroke-width="0.58"/><polyline data-depth="1" points="482.11538461538464,227.5 480.52389023560676,260 476.8104033494583,307.5 480.11538461538464,342.5" stroke-width="0.58"/><polyline data-depth="1" points="505.5769230769231,227.5 504.46158746401807,260 501.85913770057294,307.5 503.5769230769231,342.5" stroke-width="0.58"/><polyline data-depth="1" points="529.0384615384615,227.5 528.4641039441714,260 527.1239362241611,307.5 527.0384615384615,342.5" stroke-width="0.58"/><ellipse data-depth="2" cx="264.44444444444446" cy="250" rx="3.2" ry="3.2" stroke-width="0.58"/><ellipse data-depth="2" cx="298.3333333333333" cy="320" rx="3.2" ry="3.2" stroke-width="0.58"/><ellipse data-depth="2" cx="332.22222222222223" cy="250" rx="3.2" ry="3.2" stroke-width="0.58"/><ellipse data-depth="2" cx="366.1111111111111" cy="320" rx="3.2" ry="3.2" stroke-width="0.58"/><ellipse data-depth="2" cx="400" cy="250" rx="3.2" ry="3.2" stroke-width="0.58"/><ellipse data-depth="2" cx="433.8888888888889" cy="320" rx="3.2" ry="3.2" stroke-width="0.58"/><ellipse data-depth="2" cx="467.77777777777777" cy="250" rx="3.2" ry="3.2" stroke-width="0.58"/><ellipse data-depth="2" cx="501.6666666666667" cy="320" rx="3.2" ry="3.2" stroke-width="0.58"/><ellipse data-depth="2" cx="535.5555555555555" cy="250" rx="3.2" ry="3.2" stroke-width="0.58"/><ellipse data-depth="2" cx="271.9" cy="372.5" rx="20" ry="20" stroke-width="1"/><ellipse data-depth="3" cx="271.9" cy="372.5" rx="8" ry="8" stroke-width="0.58"/><line data-depth="3" x1="280.9" y1="372.5" x2="289.9" y2="372.5" stroke-width="0.58"/><line data-depth="3" x1="276.4" y1="380.29422863405995" x2="280.9" y2="388.0884572681199" stroke-width="0.58"/><line data-depth="3" x1="267.4" y1="380.29422863405995" x2="262.9" y2="388.0884572681199" stroke-width="0.58"/><line data-depth="3" x1="262.9" y1="372.5" x2="253.89999999999998" y2="372.5" stroke-width="0.58"/><line data-depth="3" x1="267.4" y1="364.70577136594005" x2="262.9" y2="356.9115427318801" stroke-width="0.58"/><line data-depth="3" x1="276.4" y1="364.70577136594005" x2="280.9" y2="356.9115427318801" stroke-width="0.58"/><ellipse data-depth="2" cx="335.95" cy="372.5" rx="20" ry="20" stroke-width="1"/><ellipse data-depth="3" cx="335.95" cy="372.5" rx="8" ry="8" stroke-width="0.58"/><line data-depth="3" x1="344.95" y1="372.5" x2="353.95" y2="372.5" stroke-width="0.58"/><line data-depth="3" x1="340.45" y1="380.29422863405995" x2="344.95" y2="388.0884572681199" stroke-width="0.58"/><line data-depth="3" x1="331.45" y1="380.29422863405995" x2="326.95" y2="388.0884572681199" stroke-width="0.58"/><line data-depth="3" x1="326.95" y1="372.5" x2="317.95" y2="372.5" stroke-width="0.58"/><line data-depth="3" x1="331.45" y1="364.70577136594005" x2="326.95" y2="356.9115427318801" stroke-width="0.58"/><line data-depth="3" x1="340.45" y1="364.70577136594005" x2="344.95" y2="356.9115427318801" stroke-width="0.58"/><ellipse data-depth="2" cx="400" cy="372.5" rx="20" ry="20" stroke-width="1"/><ellipse data-depth="3" cx="400" cy="372.5" rx="8" ry="8" stroke-width="0.58"/><line data-depth="3" x1="409" y1="372.5" x2="418" y2="372.5" stroke-width="0.58"/><line data-depth="3" x1="404.5" y1="380.29422863405995" x2="409" y2="388.0884572681199" stroke-width="0.58"/><line data-depth="3" x1="395.5" y1="380.29422863405995" x2="391" y2="388.0884572681199" stroke-width="0.58"/><line data-depth="3" x1="391" y1="372.5" x2="382" y2="372.5" stroke-width="0.58"/><line data-depth="3" x1="395.5" y1="364.70577136594005" x2="391" y2="356.9115427318801" stroke-width="0.58"/><line data-depth="3" x1="404.5" y1="364.70577136594005" x2="409" y2="356.9115427318801" stroke-width="0.58"/><ellipse data-depth="2" cx="464.04999999999995" cy="372.5" rx="20" ry="20" stroke-width="1"/><ellipse data-depth="3" cx="464.04999999999995" cy="372.5" rx="8" ry="8" stroke-width="0.58"/><line data-depth="3" x1="473.04999999999995" y1="372.5" x2="482.04999999999995" y2="372.5" stroke-width="0.58"/><line data-depth="3" x1="468.54999999999995" y1="380.29422863405995" x2="473.04999999999995" y2="388.0884572681199" stroke-width="0.58"/><line data-depth="3" x1="459.54999999999995" y1="380.29422863405995" x2="455.04999999999995" y2="388.0884572681199" stroke-width="0.58"/><line data-depth="3" x1="455.04999999999995" y1="372.5" x2="446.04999999999995" y2="372.5" stroke-width="0.58"/><line data-depth="3" x1="459.54999999999995" y1="364.70577136594005" x2="455.04999999999995" y2="356.9115427318801" stroke-width="0.58"/><line data-depth="3" x1="468.54999999999995" y1="364.70577136594005" x2="473.04999999999995" y2="356.9115427318801" stroke-width="0.58"/><ellipse data-depth="2" cx="528.0999999999999" cy="372.5" rx="20" ry="20" stroke-width="1"/><ellipse data-depth="3" cx="528.0999999999999" cy="372.5" rx="8" ry="8" stroke-width="0.58"/><line data-depth="3" x1="537.0999999999999" y1="372.5" x2="546.0999999999999" y2="372.5" stroke-width="0.58"/><line data-depth="3" x1="532.5999999999999" y1="380.29422863405995" x2="537.0999999999999" y2="388.0884572681199" stroke-width="0.58"/><line data-depth="3" x1="523.5999999999999" y1="380.29422863405995" x2="519.0999999999999" y2="388.0884572681199" stroke-width="0.58"/><line data-depth="3" x1="519.0999999999999" y1="372.5" x2="510.0999999999999" y2="372.5" stroke-width="0.58"/><line data-depth="3" x1="523.5999999999999" y1="364.70577136594005" x2="519.0999999999999" y2="356.9115427318801" stroke-width="0.58"/><line data-depth="3" x1="532.5999999999999" y1="364.70577136594005" x2="537.0999999999999" y2="356.9115427318801" stroke-width="0.58"/><polygon data-depth="2" points="137.5,375.5 265.5,353.5 281.5,393.5 142.5,397.5" stroke-width="1"/><polygon data-depth="3" points="151.5,393.5 159.5,415.5 169.5,393.5" stroke-width="0.58"/><polygon data-depth="3" points="168.5,393.5 176.5,415.5 186.5,393.5" stroke-width="0.58"/><polygon data-depth="3" points="185.5,393.5 193.5,415.5 203.5,393.5" stroke-width="0.58"/><polygon data-depth="3" points="202.5,393.5 210.5,415.5 220.5,393.5" stroke-width="0.58"/><polygon data-depth="3" points="219.5,393.5 227.5,415.5 237.5,393.5" stroke-width="0.58"/><polygon data-depth="3" points="236.5,393.5 244.5,415.5 254.5,393.5" stroke-width="0.58"/><polygon data-depth="3" points="253.5,393.5 261.5,415.5 271.5,393.5" stroke-width="0.58"/><polyline data-depth="3" points="254.5,260.75 341.48716975988634,242.41606165435306 458.51283024011366,273.6323194678366 545.5,255.29838112218965" stroke-width="0.7"/><polyline data-depth="3" points="254.5,309.25 341.8654130252013,304.5462873087163 458.1345869747987,317.29044879907286 545.5,312.58673610778914" stroke-width="0.7"/><polygon data-depth="-2" points="247.5,222.5 271.5,204.5 576.5,204.5 552.5,222.5" stroke-width="0.7"/><polygon data-depth="-1" points="552.5,222.5 576.5,204.5 576.5,329.5 552.5,347.5" stroke-width="0.7"/></g></svg>