<svg xmlns="http://www.w3.org/2000/svg" viewBox="0 0 800 600" role="img" aria-label="tendon teapot"><title>tendon teapot</title><rect width="800" height="600" fill="#fffef9"/><g fill="none" stroke="#11100d" stroke-linecap="round" stroke-linejoin="round" vector-effect="non-scaling-stroke"><polygon data-depth="0" points="548.2170232957913,285 546.1134913751272,297.72843497553254 536.7448719068252,309.95194243514754 521.2779789990259,321.1121350218579 502.3250033347509,331.57517593586607 478.6567091220171,340.83500678504095 448.9436653705505,346.7348824426057 416.23967161247236,348.32383374506344 384.07621269578175,347.0920966819079 353.1978229815539,344.0337252924728 324.84533059348394,338.34905976972465 301.11190900893655,330.0107997632144 280.8635093530785,320.474478316517 262.0613380236174,310.16977423154236 247.82546232698775,298.25643299241835 243.21702329579125,285.00000000000006 247.7784731513164,271.7394736233127 258.11350732583196,259.1098620506725 274.5277957146669,247.6389784852988 298.24016839529907,238.6820727511918 326.156709122017,232.58183131198612 354.6934820861915,227.85281790571148 384.35849031583797,224.00859682402933 415.957393992416,222.77685976087372 447.4480062659128,225.15166075557858 477.34533059348394,230.0958842966698 505.1967439483883,237.11769657854012 527.6136926374375,247.0013217799578 540.6927026046108,259.32769384706734 546.1604805507984,272.26747164019844" stroke-width="1"/><polygon data-depth="1" points="530.5588776833653,285 525.1488048372638,296.7799254765334 512.0763378368044,307.7309029812177 490.3341175201105,316.73329655273204 462.48711346284307,323.0202067924937 432.46992596107333,327.56888058714003 400,329.98744923648854 366.62048768597623,328.76137092077556 335.16120816221223,324.4510825870365 307.3499372077516,317.54686046566104 287.81646285477507,307.752644743363 278.07672678782455,296.4763147291903 274.3588776833653,285 277.6786081420045,273.4862114173065 290.2006293872312,262.73090298121775 309.173360180117,253.0936862459428 334.387113462843,245.07792045189422 366.16048660580753,240.6355562211239 400,239.98744923648852 432.92992704124197,241.82804655475942 463.2612081622122,246.50879624643704 488.51069454774506,253.90725015887176 509.6921713043482,262.75264474336296 525.5469234830838,273.18260066996334" stroke-width="0.58"/><polyline data-depth="1" points="270.96153846153845,227.5 270.38718086724833,260 269.047013147238,307.5 268.96153846153845,342.5" stroke-width="0.58"/><polyline data-depth="1" points="294.4230769230769,227.5 293.3077413101719,260 290.70529154672676,307.5 292.4230769230769,342.5" stroke-width="0.58"/><polyline data-depth="1" points="317.88461538461536,227.5 316.2931210048375,260 312.579634118689,307.5 315.88461538461536,342.5" stroke-width="0.58"/><polyline data-depth="1" points="341.34615384615387,227.5 339.3709925680091,260 334.76228291900463,307.5 339.34615384615387,342.5" stroke-width="0.58"/><polyline data-depth="1" points="364.8076923076923,227.5 362.56365332524734,260 357.327562366209,307.5 362.8076923076923,342.5" stroke-width="0.58"/><polyline data-depth="1" points="388.2692307692308,227.5 385.8867294713954,260 380.3275597764463,307.5 386.2692307692308,342.5" stroke-width="0.58"/><polyline data-depth="1" points="411.7307692307692,227.5 409.3482679329339,260 403.7890982379848,307.5 409.7307692307692,342.5" stroke-width="0.58"/><polyline data-depth="1" points="435.19230769230774,227.5 432.94826870986276,260 427.7121777508244,307.5 433.19230769230774,342.5" stroke-width="0.58"/><polyline data-depth="1" points="458.6538461538462,227.5 456.67868487570144,260 452.06997522669695,307.5 456.6538461538462,342.5" stroke-width="0.58"/><polyline data-depth="1" points="482.11538461538464,227.5 480.52389023560676,260 476.8104033494583,307.5 480.11538461538464,342.5" stroke-width="0.58"/><polyline data-depth="1" points="505.5769230769231,227.5 504.46158746401807,260 501.85913770057294,307.5 503.5769230769231,342.5" stroke-width="0.58"/><polyline data-depth="1" points="529.0384615384615,227.5 528.4641039441714,260 527.1239362241611,307.5 527.0384615384615,342.5" stroke-width="0.58"/><ellipse data-depth="2" cx="264.44444444444446" cy="250" rx="3.2" ry="3.2" stroke-width="0.58"/><ellipse data-depth="2" cx="298.3333333333333" cy="320" rx="3.2" ry="3.2" stroke-width="0.58"/><ellipse data-depth="2" cx="332.22222222222223" cy="250" rx="3.2" ry="3.2" stroke-width="0.58"/><ellipse data-depth="2" cx="366.1111111111111" cy="320" rx="3.2" ry="3.2" stroke-width="0.58"/><ellipse data-depth="2" cx="400" cy="250" rx="3.2" ry="3.2" stroke-width="0.58"/><ellipse data-depth="2" cx="433.8888888888889" cy="320" rx="3.2" ry="3.2" stroke-width="0.58"/><ellipse data-depth="2" cx="467.77777777777777" cy="250" rx="3.2" ry="3.2" stroke-width="0.58"/><ellipse data-depth="2" cx="501.6666666666667" cy="320" rx="3.2" ry="3.2" stroke-width="0.58"/><ellipse data-depth="2" cx="535.5555555555555" cy="250" rx="3.2" ry="3.2" stroke-width="0.58"/><polyline data-depth="1" points="265.5,247.5 192.5,240.5 169.5,285 197.5,329.5 262.5,325.5" stroke-width="1"/><polygon data-depth="2" points="544.5,247.5 608.5,220.5 634.5,230.5 586.5,287.5" stroke-width="1"/><polyline data-depth="3" points="254.5,241.35 342.140197396359,250.25114136333605 457.859802603641,223.8304017836648 545.5,232.73154314700085" stroke-width="0.7"/><polyline data-depth="3" points="254.5,251.05 341.93515293768695,258.205645563513 458.06484706231305,239.28774647790422 545.5,246.44339204141718" stroke-width="0.7"/><polyline data-depth="3" points="254.5,260.75 341.7227814431199,269.68757368400634 458.2772185568801,254.5845419278775 545.5,263.52211561188386" stroke-width="0.7"/><polyline data-depth="3" points="254.5,270.45 342.37357489673303,252.15940251614182 457.62642510326697,296.8005542102574 545.5,278.50995672639925" stroke-width="0.7"/><polyline data-depth="3" points="254.5,280.15 341.50601177018245,295.4761960422588 458.49398822981755,271.20213108374554 545.5,286.52832712600434" stroke-width="0.7"/><polyline data-depth="3" points="254.5,289.85 341.7777421422799,285.68683390777954 458.2222578577201,292.22763161005395 545.5,288.06446551783347" stroke-width="0.7"/><polyline data-depth="3" points="254.5,299.55 341.65800036464896,291.93508460557206 458.34199963535104,299.3040395092252 545.5,291.68912411479727" stroke-width="0.7"/><polyline data-depth="3" points="254.5,309.25 341.95541042277165,293.45629235161147 458.04458957722835,327.7663489259166 545.5,311.97264127752806" stroke-width="0.7"/><polyline data-depth="3" points="254.5,318.95 341.74125228520484,313.753294988904 458.25874771479516,319.7317835589409 545.5,314.5350785478449" stroke-width="0.7"/><polyline data-depth="3" points="254.5,328.65 342.17112208764513,315.27640247960727 457.82887791235487,349.0054592970608 545.5,335.6318617766681" stroke-width="0.7"/><polygon data-depth="-2" points="247.5,222.5 271.5,204.5 576.5,204.5 552.5,222.5" stroke-width="0.7"/><polygon data-depth="-1" points="552.5,222.5 576.5,204.5 576.5,329.5 552.5,347.5" stroke-width="0.7"/></g></svg>